<?xml version="1.0" encoding="UTF-8"?>
<svg id="Layer_1" xmlns="http://www.w3.org/2000/svg" version="1.1" viewBox="0 0 368.224 299.831">
  <!-- Generator: Adobe Illustrator 29.0.1, SVG Export Plug-In . SVG Version: 2.1.0 Build 192)  -->
  <rect x="220.14" y="134.488" width="20" height="30.685" transform="translate(80.31 379.971) rotate(-90)" fill="#fff"/>
  <rect x="158.769" y="234.488" width="20" height="30.685" transform="translate(-81.061 418.6) rotate(-90)" fill="#fff"/>
  <rect x="220.14" y="174.488" width="20" height="30.685" transform="translate(40.31 419.971) rotate(-90)" fill="#fff"/>
  <rect x="220.14" y="154.488" width="20" height="30.685" transform="translate(60.31 399.971) rotate(-90)" fill="#fff"/>
  <rect x="220.14" y="114.488" width="20" height="30.685" transform="translate(100.31 359.971) rotate(-90)" fill="#fff"/>
  <rect x="220.14" y="94.488" width="20" height="30.685" transform="translate(120.31 339.971) rotate(-90)" fill="#fff"/>
  <rect x="158.769" y="34.488" width="20" height="30.685" transform="translate(118.939 218.6) rotate(-90)" fill="#fff"/>
  <rect x="128.084" y="234.488" width="20" height="30.685" transform="translate(-111.746 387.915) rotate(-90)" fill="#010101"/>
  <rect x="128.084" y="34.488" width="20" height="30.685" transform="translate(88.254 187.915) rotate(-90)" fill="#010101"/>
  <rect x="189.455" y="234.488" width="20" height="30.685" transform="translate(-50.376 449.285) rotate(-90)" fill="#010101"/>
  <rect x="250.826" y="174.488" width="20" height="30.685" transform="translate(70.995 450.656) rotate(-90)" fill="#fff"/>
  <rect x="250.826" y="154.488" width="20" height="30.685" transform="translate(90.995 430.656) rotate(-90)" fill="#fff"/>
  <rect x="250.826" y="134.488" width="20" height="30.685" transform="translate(110.995 410.656) rotate(-90)" fill="#fff"/>
  <rect x="250.826" y="114.488" width="20" height="30.685" transform="translate(130.995 390.656) rotate(-90)" fill="#fff"/>
  <rect x="250.826" y="94.488" width="20" height="30.685" transform="translate(150.995 370.656) rotate(-90)" fill="#fff"/>
  <rect x="189.455" y="34.488" width="20" height="30.685" transform="translate(149.624 249.285) rotate(-90)" fill="#010101"/>
  <rect x="158.769" y="134.488" width="20" height="30.685" transform="translate(18.939 318.6) rotate(-90)" fill="#fff"/>
  <rect x="158.769" y="174.488" width="20" height="30.685" transform="translate(-21.061 358.6) rotate(-90)" fill="#fff"/>
  <rect x="158.769" y="154.488" width="20" height="30.685" transform="translate(-1.061 338.6) rotate(-90)" fill="#fff"/>
  <rect x="158.769" y="114.488" width="20" height="30.685" transform="translate(38.939 298.6) rotate(-90)" fill="#fff"/>
  <rect x="158.769" y="94.488" width="20" height="30.685" transform="translate(58.939 278.6) rotate(-90)" fill="#fff"/>
  <rect x="158.769" y="254.488" width="20" height="30.685" transform="translate(-101.061 438.6) rotate(-90)" fill="#010101"/>
  <rect x="128.084" y="254.488" width="20" height="30.685" transform="translate(-131.746 407.915) rotate(-90)" fill="#010101"/>
  <rect x="128.084" y="274.488" width="20" height="30.685" transform="translate(-151.746 427.915) rotate(-90)" fill="#010101"/>
  <rect x="97.399" y="174.488" width="20" height="30.685" transform="translate(-82.432 297.229) rotate(-90)" fill="#010101"/>
  <rect x="5.343" y="174.488" width="20" height="30.685" transform="translate(-174.488 205.173) rotate(-90)" fill="#010101"/>
  <rect x="128.084" y="174.488" width="20" height="30.685" transform="translate(-51.746 327.915) rotate(-90)" fill="#010101"/>
  <rect x="36.028" y="174.488" width="20" height="30.685" transform="translate(-143.802 235.858) rotate(-90)" fill="#010101"/>
  <rect x="66.713" y="174.488" width="20" height="30.685" transform="translate(-113.117 266.544) rotate(-90)" fill="#010101"/>
  <rect x="97.399" y="94.488" width="20" height="30.685" transform="translate(-2.432 217.229) rotate(-90)" fill="#010101"/>
  <rect x="5.343" y="94.488" width="20" height="30.685" transform="translate(-94.488 125.173) rotate(-90)" fill="#010101"/>
  <rect x="128.084" y="94.488" width="20" height="30.685" transform="translate(28.254 247.915) rotate(-90)" fill="#010101"/>
  <rect x="36.028" y="94.488" width="20" height="30.685" transform="translate(-63.802 155.858) rotate(-90)" fill="#010101"/>
  <rect x="66.713" y="94.488" width="20" height="30.685" transform="translate(-33.117 186.544) rotate(-90)" fill="#010101"/>
  <rect x="189.455" y="174.488" width="20" height="30.685" transform="translate(9.624 389.285) rotate(-90)" fill="#fff"/>
  <rect x="189.455" y="154.488" width="20" height="30.685" transform="translate(29.624 369.285) rotate(-90)" fill="#fff"/>
  <rect x="189.455" y="134.488" width="20" height="30.685" transform="translate(49.624 349.285) rotate(-90)" fill="#fff"/>
  <rect x="189.455" y="114.488" width="20" height="30.685" transform="translate(69.624 329.285) rotate(-90)" fill="#fff"/>
  <rect x="189.455" y="94.488" width="20" height="30.685" transform="translate(89.624 309.285) rotate(-90)" fill="#fff"/>
  <rect x="158.769" y="14.488" width="20" height="30.685" transform="translate(138.939 198.6) rotate(-90)" fill="#010101"/>
  <rect x="128.084" y="14.488" width="20" height="30.685" transform="translate(108.254 167.915) rotate(-90)" fill="#010101"/>
  <rect x="128.084" y="-5.512" width="20" height="30.685" transform="translate(128.254 147.915) rotate(-90)" fill="#010101"/>
  <rect x="281.511" y="174.488" width="20" height="30.685" transform="translate(101.68 481.341) rotate(-90)" fill="#010101"/>
  <rect x="281.511" y="154.488" width="20" height="30.685" transform="translate(121.68 461.341) rotate(-90)" fill="#fff"/>
  <rect x="281.511" y="134.488" width="20" height="30.685" transform="translate(141.68 441.341) rotate(-90)" fill="#fff"/>
  <rect x="281.511" y="114.488" width="20" height="30.685" transform="translate(161.68 421.341) rotate(-90)" fill="#fff"/>
  <rect x="281.511" y="94.488" width="20" height="30.685" transform="translate(181.68 401.341) rotate(-90)" fill="#010101"/>
  <rect x="312.196" y="154.488" width="20" height="30.685" transform="translate(152.366 492.027) rotate(-90)" fill="#010101"/>
  <rect x="312.196" y="134.488" width="20" height="30.685" transform="translate(172.366 472.027) rotate(-90)" fill="#fff"/>
  <rect x="312.196" y="114.488" width="20" height="30.685" transform="translate(192.366 452.027) rotate(-90)" fill="#010101"/>
  <rect x="342.882" y="134.488" width="20" height="30.685" transform="translate(203.051 502.712) rotate(-90)" fill="#010101"/>
  <rect x="97.399" y="114.488" width="20" height="30.685" transform="translate(-22.432 237.229) rotate(-90)" fill="#fff"/>
  <rect x="5.343" y="114.488" width="20" height="30.685" transform="translate(-114.488 145.173) rotate(-90)" fill="#010101"/>
  <rect x="128.084" y="114.488" width="20" height="30.685" transform="translate(8.254 267.915) rotate(-90)" fill="#fff"/>
  <rect x="36.028" y="114.488" width="20" height="30.685" transform="translate(-83.802 175.858) rotate(-90)" fill="#fff"/>
  <rect x="66.713" y="114.488" width="20" height="30.685" transform="translate(-53.117 206.544) rotate(-90)" fill="#fff"/>
  <rect x="97.399" y="134.488" width="20" height="30.685" transform="translate(-42.432 257.229) rotate(-90)" fill="#fff"/>
  <rect x="5.343" y="134.488" width="20" height="30.685" transform="translate(-134.488 165.173) rotate(-90)" fill="#010101"/>
  <rect x="128.084" y="134.488" width="20" height="30.685" transform="translate(-11.746 287.915) rotate(-90)" fill="#fff"/>
  <rect x="36.028" y="134.488" width="20" height="30.685" transform="translate(-103.802 195.858) rotate(-90)" fill="#fff"/>
  <rect x="66.713" y="134.488" width="20" height="30.685" transform="translate(-73.117 226.544) rotate(-90)" fill="#fff"/>
  <rect x="97.399" y="154.488" width="20" height="30.685" transform="translate(-62.432 277.229) rotate(-90)" fill="#fff"/>
  <rect x="5.343" y="154.488" width="20" height="30.685" transform="translate(-154.488 185.173) rotate(-90)" fill="#010101"/>
  <rect x="128.084" y="154.488" width="20" height="30.685" transform="translate(-31.746 307.915) rotate(-90)" fill="#fff"/>
  <rect x="36.028" y="154.488" width="20" height="30.685" transform="translate(-123.802 215.858) rotate(-90)" fill="#fff"/>
  <rect x="66.713" y="154.488" width="20" height="30.685" transform="translate(-93.117 246.544) rotate(-90)" fill="#fff"/>
  <rect x="189.455" y="74.488" width="20" height="30.685" transform="translate(109.624 289.285) rotate(-90)" fill="#fff"/>
  <rect x="220.14" y="74.488" width="20" height="30.685" transform="translate(140.31 319.971) rotate(-90)" fill="#fff"/>
  <rect x="158.769" y="74.488" width="20" height="30.685" transform="translate(78.939 258.6) rotate(-90)" fill="#fff"/>
  <rect x="250.826" y="74.488" width="20" height="30.685" transform="translate(170.995 350.656) rotate(-90)" fill="#010101"/>
  <rect x="128.084" y="74.488" width="20" height="30.685" transform="translate(48.254 227.915) rotate(-90)" fill="#010101"/>
  <rect x="128.084" y="54.488" width="20" height="30.685" transform="translate(68.254 207.915) rotate(-90)" fill="#010101"/>
  <rect x="158.769" y="54.488" width="20" height="30.685" transform="translate(98.939 238.6) rotate(-90)" fill="#fff"/>
  <rect x="189.455" y="54.488" width="20" height="30.685" transform="translate(129.624 269.285) rotate(-90)" fill="#fff"/>
  <rect x="220.14" y="54.488" width="20" height="30.685" transform="translate(160.31 299.971) rotate(-90)" fill="#010101"/>
  <rect x="128.084" y="214.488" width="20" height="30.685" transform="translate(-91.746 367.915) rotate(-90)" fill="#010101"/>
  <rect x="158.769" y="214.488" width="20" height="30.685" transform="translate(-61.061 398.6) rotate(-90)" fill="#fff"/>
  <rect x="158.769" y="194.488" width="20" height="30.685" transform="translate(-41.061 378.6) rotate(-90)" fill="#fff"/>
  <rect x="189.455" y="214.488" width="20" height="30.685" transform="translate(-30.376 429.285) rotate(-90)" fill="#fff"/>
  <rect x="189.455" y="194.488" width="20" height="30.685" transform="translate(-10.376 409.285) rotate(-90)" fill="#fff"/>
  <rect x="220.14" y="214.488" width="20" height="30.685" transform="translate(.31 459.971) rotate(-90)" fill="#010101"/>
  <rect x="220.14" y="194.488" width="20" height="30.685" transform="translate(20.31 439.971) rotate(-90)" fill="#fff"/>
  <rect x="250.826" y="194.488" width="20" height="30.685" transform="translate(50.995 470.656) rotate(-90)" fill="#010101"/>
  <rect x="128.084" y="194.488" width="20" height="30.685" transform="translate(-71.746 347.915) rotate(-90)" fill="#010101"/>
</svg>